<?xml version="1.0" encoding="utf-8"?>
<!-- Generator: Adobe Illustrator 23.0.0, SVG Export Plug-In . SVG Version: 6.00 Build 0)  -->
<svg version="1.1" id="Capa_1" xmlns="http://www.w3.org/2000/svg" xmlns:xlink="http://www.w3.org/1999/xlink" x="0px" y="0px"
	 viewBox="0 0 1184.8 569.1" style="enable-background:new 0 0 1184.8 569.1;" xml:space="preserve">
<style type="text/css">
	.st0{fill:#FFFFFF;}
</style>
<g>
	<g>
		<path class="st0" d="M937.7,106.7l-0.4-1.5H777.4l-54.3,295.5h-23.6L772.6,0H670.3l0,0H339.8v2.2c0,62.8,53.6,83.1,79.4,83.1
			h115.6l0,0c21.1,0,38,17,38,38c0,20.7-16.6,37.7-37.3,38h-0.4h-3H263.7v2.2c0,62.8,53.6,83.1,79.4,83.1h188.4h4.8h67.2
			c20.7,0,37.7,17,37.7,38s-17,38-38,38h-13.7h-81.2l0,0H289.6h-10.3H188v2.2c0,62.8,53.6,83.1,79.4,83.1h11.8h10.3h17.4l-8.1,46.2
			h66.1c8.1,23.6,25.5,42.1,48.4,50.6c8.9,3.3,18.1,4.8,27,4.8c33.6,0,65.4-21.4,78.7-55.4h105.6l0,0h90.9h24.4h17.4
			c8.1,23.6,25.5,42.1,48.7,50.6c8.9,3.3,18.1,4.8,27.3,4.8c12.2,0,24.4-3,36.2-8.5c19.6-9.6,34.3-26.2,42.5-46.9h52.8l32.1-175.4
			L937.7,106.7z M471.3,441.7c-6.3,17-24.4,25.9-40.6,19.9c-16.2-5.9-24.4-24.4-18.1-41.4c6.3-17,24.4-25.9,40.6-19.9
			C469,405.9,477.2,424.7,471.3,441.7 M863.5,441.7c-6.3,17-24.4,25.9-40.6,19.9c-16.2-5.9-24.4-24.4-18.1-41.4
			c6.3-17,24.4-25.9,40.6-19.9C861.3,405.9,869.4,424.7,863.5,441.7 M788.5,279.6l24.7-135.9H903l46.9,135.9H788.5z"/>
	</g>
</g>
<g>
	<rect x="116.7" y="539.1" class="st0" width="951.4" height="30"/>
</g>
</svg>
