<?xml version="1.0" encoding="utf-8"?>
<!-- Generator: Adobe Illustrator 23.0.0, SVG Export Plug-In . SVG Version: 6.00 Build 0)  -->
<svg version="1.1" id="Capa_1" xmlns="http://www.w3.org/2000/svg" xmlns:xlink="http://www.w3.org/1999/xlink" x="0px" y="0px"
	 viewBox="0 0 58.3 36.7" style="enable-background:new 0 0 58.3 36.7;" xml:space="preserve">
<style type="text/css">
	.st0{fill:#FFFFFF;}
</style>
<g>
	<path class="st0" d="M54,7.7l0-0.1H42.4l-3.9,21.3h-1.7L42.1,0h-7.4v0H10.9v0.2c0,4.5,3.9,6,5.7,6H25v0c1.5,0,2.7,1.2,2.7,2.7
		c0,1.5-1.2,2.7-2.7,2.7h0h-0.2H5.4v0.2c0,4.5,3.9,6,5.7,6h13.6h0.3h4.8c1.5,0,2.7,1.2,2.7,2.7c0,1.5-1.2,2.8-2.7,2.8h-1h-5.9v0H7.3
		H6.6H0v0.2c0,4.5,3.9,6,5.7,6h0.8h0.7h1.3L8,32.7h4.8c0.6,1.7,1.8,3,3.5,3.6c0.6,0.2,1.3,0.3,2,0.3c2.4,0,4.7-1.5,5.7-4h7.6v0H38
		h1.8h1.3c0.6,1.7,1.8,3,3.5,3.6c0.6,0.2,1.3,0.4,2,0.4c0.9,0,1.8-0.2,2.6-0.6c1.4-0.7,2.5-1.9,3.1-3.4H56l2.3-12.6L54,7.7z
		 M20.4,31.8c-0.4,1.2-1.8,1.9-2.9,1.4c-1.2-0.4-1.8-1.8-1.3-3c0.4-1.2,1.8-1.9,2.9-1.4C20.3,29.3,20.8,30.6,20.4,31.8 M48.7,31.8
		c-0.4,1.2-1.8,1.9-2.9,1.4c-1.2-0.4-1.8-1.8-1.3-3c0.4-1.2,1.8-1.9,2.9-1.4C48.5,29.3,49.1,30.6,48.7,31.8 M43.3,20.2l1.8-9.8h6.5
		l3.4,9.8H43.3z"/>
</g>
</svg>
