<?xml version="1.0" encoding="utf-8"?>
<!-- Generator: Adobe Illustrator 23.0.0, SVG Export Plug-In . SVG Version: 6.00 Build 0)  -->
<svg version="1.1" id="Capa_1" xmlns="http://www.w3.org/2000/svg" xmlns:xlink="http://www.w3.org/1999/xlink" x="0px" y="0px"
	 viewBox="0 0 193.8 170.9" style="enable-background:new 0 0 193.8 170.9;" xml:space="preserve">
<style type="text/css">
	.st0{fill:#FFFFFF;}
	.st1{fill:#F15A24;}
	.st2{fill:none;}
	.st3{fill:#FBFBFB;}
</style>
<g>
	<g>
		<path class="st0" d="M36.3,24.3l-2.9-4.1c-0.3,0-0.7,0.1-1,0.1H29v4h-1.3V11.7h4.7c1.6,0,2.9,0.4,3.8,1.2c0.9,0.8,1.4,1.8,1.4,3.2
			c0,1-0.3,1.8-0.7,2.5s-1.2,1.2-2.1,1.5l3.1,4.3H36.3z M35.2,18.4c0.7-0.6,1-1.3,1-2.3c0-1-0.3-1.8-1-2.4s-1.6-0.8-2.9-0.8H29v6.3
			h3.4C33.6,19.2,34.6,18.9,35.2,18.4z"/>
		<path class="st0" d="M48.7,20h-7.9c0.1,1,0.5,1.8,1.1,2.4c0.7,0.6,1.6,0.9,2.6,0.9c0.6,0,1.1-0.1,1.6-0.3c0.5-0.2,0.9-0.5,1.3-0.9
			l0.7,0.8c-0.4,0.5-0.9,0.9-1.6,1.2s-1.3,0.4-2.1,0.4c-1,0-1.8-0.2-2.6-0.6c-0.8-0.4-1.3-1-1.8-1.7s-0.6-1.6-0.6-2.5
			c0-0.9,0.2-1.8,0.6-2.5c0.4-0.7,1-1.3,1.7-1.7c0.7-0.4,1.5-0.6,2.4-0.6c0.9,0,1.7,0.2,2.4,0.6c0.7,0.4,1.2,1,1.6,1.7
			c0.4,0.7,0.6,1.6,0.6,2.5L48.7,20z M41.8,16.8c-0.6,0.6-1,1.3-1.1,2.3h6.7c-0.1-0.9-0.4-1.7-1.1-2.3c-0.6-0.6-1.4-0.9-2.3-0.9
			C43.2,15.9,42.5,16.2,41.8,16.8z"/>
		<path class="st0" d="M57.3,15.7c0.7,0.6,1,1.5,1,2.8v5.9H57v-1.5c-0.3,0.5-0.7,0.9-1.3,1.2c-0.6,0.3-1.2,0.4-2,0.4
			c-1.1,0-1.9-0.3-2.5-0.8c-0.6-0.5-0.9-1.2-0.9-2c0-0.8,0.3-1.5,0.9-1.9c0.6-0.5,1.5-0.7,2.8-0.7h3v-0.6c0-0.8-0.2-1.4-0.7-1.9
			c-0.5-0.4-1.1-0.6-2-0.6c-0.6,0-1.2,0.1-1.7,0.3c-0.6,0.2-1,0.5-1.4,0.8l-0.6-1c0.5-0.4,1.1-0.7,1.7-0.9c0.7-0.2,1.4-0.3,2.1-0.3
			C55.7,14.8,56.6,15.1,57.3,15.7z M55.8,22.9c0.5-0.3,0.9-0.8,1.2-1.4v-1.6h-3c-1.6,0-2.4,0.6-2.4,1.7c0,0.6,0.2,1,0.6,1.3
			c0.4,0.3,1,0.5,1.8,0.5C54.7,23.4,55.3,23.3,55.8,22.9z"/>
		<path class="st0" d="M61.8,11H63v13.4h-1.3V11z"/>
		<path class="st0" d="M66.6,12.5c-0.2-0.2-0.3-0.4-0.3-0.6c0-0.2,0.1-0.5,0.3-0.6c0.2-0.2,0.4-0.3,0.7-0.3c0.3,0,0.5,0.1,0.7,0.3
			c0.2,0.2,0.3,0.4,0.3,0.6c0,0.3-0.1,0.5-0.3,0.7c-0.2,0.2-0.4,0.3-0.7,0.3C67,12.8,66.8,12.7,66.6,12.5z M66.6,14.9h1.3v9.5h-1.3
			V14.9z"/>
		<path class="st0" d="M78.2,23.3v1.1h-7.7v-0.8l6-7.6h-5.9v-1.1H78v0.8l-6,7.6H78.2z"/>
		<path class="st0" d="M86.8,15.7c0.7,0.6,1,1.5,1,2.8v5.9h-1.2v-1.5c-0.3,0.5-0.7,0.9-1.3,1.2c-0.6,0.3-1.2,0.4-2,0.4
			c-1.1,0-1.9-0.3-2.5-0.8c-0.6-0.5-0.9-1.2-0.9-2c0-0.8,0.3-1.5,0.9-1.9c0.6-0.5,1.5-0.7,2.8-0.7h3v-0.6c0-0.8-0.2-1.4-0.7-1.9
			c-0.5-0.4-1.1-0.6-2-0.6c-0.6,0-1.2,0.1-1.7,0.3c-0.6,0.2-1,0.5-1.4,0.8l-0.6-1c0.5-0.4,1.1-0.7,1.7-0.9c0.7-0.2,1.4-0.3,2.1-0.3
			C85.2,14.8,86.2,15.1,86.8,15.7z M85.4,22.9c0.5-0.3,0.9-0.8,1.2-1.4v-1.6h-3c-1.6,0-2.4,0.6-2.4,1.7c0,0.6,0.2,1,0.6,1.3
			c0.4,0.3,1,0.5,1.8,0.5C84.3,23.4,84.9,23.3,85.4,22.9z"/>
	</g>
	<g>
	</g>
	<g>
		<path class="st1" d="M29.6,33.6h-3.9v-2.8H37v2.8h-3.9v9.8h-3.6V33.6z"/>
		<path class="st1" d="M39.6,42.1c-1-1-1.6-2.5-1.6-4.3v-7h3.6v6.9c0,2,0.8,3,2.4,3c1.6,0,2.4-1,2.4-3v-6.9h3.5v7
			c0,1.9-0.5,3.3-1.6,4.3c-1,1-2.5,1.5-4.4,1.5C42.1,43.6,40.7,43.1,39.6,42.1z"/>
		<path class="st1" d="M53.8,43.2c-1-0.3-1.7-0.6-2.3-1l1.2-2.6c0.6,0.4,1.2,0.7,2,0.9c0.7,0.2,1.5,0.3,2.2,0.3c1.4,0,2.1-0.3,2.1-1
			c0-0.4-0.2-0.6-0.6-0.8c-0.4-0.2-1-0.4-1.9-0.6c-1-0.2-1.7-0.4-2.4-0.7s-1.2-0.6-1.6-1.1c-0.5-0.5-0.7-1.2-0.7-2.1
			c0-0.8,0.2-1.5,0.6-2.1c0.4-0.6,1-1.1,1.9-1.5s1.9-0.5,3.1-0.5c0.8,0,1.6,0.1,2.5,0.3c0.8,0.2,1.5,0.5,2.1,0.8l-1.1,2.7
			c-1.2-0.6-2.4-1-3.5-1c-0.7,0-1.2,0.1-1.6,0.3s-0.5,0.5-0.5,0.8c0,0.3,0.2,0.6,0.6,0.8c0.4,0.2,1,0.3,1.9,0.5
			c1,0.2,1.8,0.4,2.4,0.7c0.6,0.2,1.2,0.6,1.6,1.1c0.5,0.5,0.7,1.2,0.7,2.1c0,0.8-0.2,1.4-0.6,2.1c-0.4,0.6-1.1,1.1-1.9,1.5
			s-1.9,0.6-3.1,0.6C55.8,43.6,54.8,43.5,53.8,43.2z"/>
		<path class="st1" d="M72,42.8c-1.1-0.6-1.9-1.3-2.5-2.3s-0.9-2.1-0.9-3.4c0-1.3,0.3-2.4,0.9-3.4c0.6-1,1.4-1.8,2.5-2.3
			c1.1-0.6,2.2-0.8,3.6-0.8c1.2,0,2.2,0.2,3.1,0.6c0.9,0.4,1.7,1,2.3,1.8l-2.3,2.1c-0.8-1-1.8-1.5-3-1.5c-0.7,0-1.3,0.2-1.8,0.5
			s-1,0.7-1.2,1.3s-0.4,1.2-0.4,1.9c0,0.7,0.1,1.3,0.4,1.9s0.7,1,1.2,1.3c0.5,0.3,1.1,0.5,1.8,0.5c1.2,0,2.2-0.5,3-1.5l2.3,2.1
			c-0.6,0.8-1.4,1.4-2.3,1.8s-2,0.6-3.1,0.6C74.2,43.6,73.1,43.3,72,42.8z"/>
		<path class="st1" d="M90.9,40.9h-5.3l-1,2.5h-3.6l5.6-12.6H90l5.6,12.6h-3.7L90.9,40.9z M89.8,38.3l-1.6-4l-1.6,4H89.8z"/>
		<path class="st1" d="M102.1,40h-1.9v3.4h-3.6V30.7h5.8c1.1,0,2.1,0.2,3,0.6c0.8,0.4,1.5,0.9,1.9,1.6c0.5,0.7,0.7,1.5,0.7,2.5
			c0,0.9-0.2,1.7-0.6,2.4c-0.4,0.7-1,1.2-1.8,1.6l2.7,4h-3.8L102.1,40z M103.8,34c-0.4-0.3-0.9-0.5-1.7-0.5h-2v3.7h2
			c0.7,0,1.3-0.2,1.7-0.5s0.6-0.8,0.6-1.4S104.2,34.3,103.8,34z"/>
		<path class="st1" d="M118.4,36.8h3.2V42c-0.7,0.5-1.6,0.9-2.5,1.2c-0.9,0.3-1.9,0.4-2.8,0.4c-1.3,0-2.5-0.3-3.6-0.8
			c-1.1-0.6-1.9-1.3-2.5-2.3s-0.9-2.1-0.9-3.4c0-1.3,0.3-2.4,0.9-3.4c0.6-1,1.4-1.8,2.5-2.3c1.1-0.6,2.3-0.8,3.6-0.8
			c1.2,0,2.2,0.2,3.2,0.6s1.7,1,2.3,1.7l-2.3,2.1c-0.9-0.9-1.9-1.4-3.1-1.4c-1.1,0-2,0.3-2.6,1c-0.7,0.7-1,1.5-1,2.6
			c0,0.7,0.2,1.3,0.5,1.9s0.7,1,1.3,1.3s1.2,0.5,1.9,0.5c0.7,0,1.3-0.1,1.9-0.4V36.8z"/>
		<path class="st1" d="M132.3,40.9h-5.3l-1,2.5h-3.6l5.6-12.6h3.5l5.6,12.6h-3.7L132.3,40.9z M131.2,38.3l-1.6-4l-1.6,4H131.2z"/>
	</g>
	<g>
		<path class="st1" d="M139.4,43.2c-1-0.3-1.7-0.6-2.3-1l1.2-2.6c0.6,0.4,1.2,0.7,2,0.9c0.7,0.2,1.5,0.3,2.2,0.3
			c1.4,0,2.1-0.3,2.1-1c0-0.4-0.2-0.6-0.6-0.8c-0.4-0.2-1-0.4-1.9-0.6c-0.9-0.2-1.7-0.4-2.4-0.7c-0.6-0.2-1.2-0.6-1.6-1.1
			c-0.5-0.5-0.7-1.2-0.7-2.1c0-0.8,0.2-1.5,0.6-2.1s1-1.1,1.9-1.5s1.9-0.5,3.1-0.5c0.8,0,1.6,0.1,2.5,0.3c0.8,0.2,1.5,0.5,2.1,0.8
			l-1.1,2.7c-1.2-0.6-2.4-1-3.5-1c-0.7,0-1.2,0.1-1.6,0.3c-0.3,0.2-0.5,0.5-0.5,0.8c0,0.3,0.2,0.6,0.6,0.8c0.4,0.2,1,0.3,1.9,0.5
			c1,0.2,1.8,0.4,2.4,0.7c0.6,0.2,1.2,0.6,1.6,1.1c0.5,0.5,0.7,1.2,0.7,2.1c0,0.8-0.2,1.4-0.6,2.1c-0.4,0.6-1.1,1.1-1.9,1.5
			s-1.9,0.6-3.1,0.6C141.4,43.6,140.4,43.5,139.4,43.2z"/>
	</g>
	<g>
	</g>
	<g>
		<path class="st0" d="M163.2,33.9l-4.7,10.6c-0.4,0.9-0.8,1.5-1.3,1.9c-0.5,0.4-1.1,0.6-1.8,0.6c-0.5,0-0.9-0.1-1.3-0.2
			c-0.4-0.1-0.7-0.4-1-0.6l0.6-1c0.5,0.5,1.1,0.7,1.7,0.7c0.4,0,0.8-0.1,1.1-0.4s0.6-0.6,0.9-1.2l0.4-0.9l-4.2-9.5h1.3l3.6,8.1
			l3.6-8.1H163.2z"/>
	</g>
	<g>
		<path class="st0" d="M30.1,50.9h-4.4v-1.2h10.2v1.2h-4.4v11.5h-1.3V50.9z"/>
		<path class="st0" d="M46.7,62.3l-2.9-4.1c-0.3,0-0.7,0.1-1,0.1h-3.4v4H38V49.7h4.7c1.6,0,2.9,0.4,3.8,1.2c0.9,0.8,1.4,1.8,1.4,3.2
			c0,1-0.3,1.8-0.7,2.5S46,57.7,45,58l3.1,4.3H46.7z M45.6,56.4c0.7-0.6,1-1.3,1-2.3c0-1-0.3-1.8-1-2.4s-1.6-0.8-2.9-0.8h-3.4v6.3
			h3.4C44,57.2,44.9,56.9,45.6,56.4z"/>
		<path class="st0" d="M59,59h-7l-1.5,3.4h-1.4l5.8-12.6h1.3l5.8,12.6h-1.4L59,59z M58.5,57.9l-3-6.8l-3,6.8H58.5z"/>
		<path class="st0" d="M64.8,62c-0.9-0.3-1.5-0.7-2-1.2l0.5-1c0.5,0.5,1.1,0.8,1.8,1.1c0.8,0.3,1.5,0.4,2.3,0.4c1.1,0,2-0.2,2.5-0.6
			s0.8-1,0.8-1.6c0-0.5-0.2-0.9-0.5-1.2c-0.3-0.3-0.7-0.5-1.1-0.7c-0.4-0.2-1.1-0.3-1.9-0.5c-1-0.2-1.7-0.5-2.3-0.7
			c-0.6-0.2-1-0.6-1.5-1c-0.4-0.5-0.6-1.1-0.6-1.9c0-0.6,0.2-1.2,0.5-1.7c0.3-0.5,0.9-0.9,1.6-1.3c0.7-0.3,1.6-0.5,2.6-0.5
			c0.7,0,1.4,0.1,2.1,0.3c0.7,0.2,1.3,0.5,1.8,0.8l-0.5,1.1c-0.5-0.3-1.1-0.6-1.7-0.8s-1.2-0.3-1.8-0.3c-1.1,0-1.9,0.2-2.5,0.6
			c-0.6,0.4-0.8,1-0.8,1.7c0,0.5,0.2,0.9,0.5,1.2c0.3,0.3,0.7,0.5,1.2,0.7c0.5,0.2,1.1,0.3,1.9,0.5c0.9,0.2,1.7,0.5,2.2,0.7
			s1.1,0.6,1.5,1s0.6,1.1,0.6,1.8c0,0.6-0.2,1.2-0.5,1.7c-0.3,0.5-0.9,0.9-1.6,1.2c-0.7,0.3-1.6,0.5-2.6,0.5
			C66.6,62.5,65.7,62.3,64.8,62z"/>
		<path class="st0" d="M77.4,50.9H73v-1.2h10.2v1.2h-4.4v11.5h-1.3V50.9z"/>
		<path class="st0" d="M94.2,61.2v1.2h-8.9V49.7H94v1.2h-7.3v4.5h6.5v1.1h-6.5v4.7H94.2z"/>
		<path class="st0" d="M99.5,61.6c-1-0.6-1.8-1.3-2.4-2.3c-0.6-1-0.9-2.1-0.9-3.3c0-1.2,0.3-2.3,0.9-3.3c0.6-1,1.4-1.7,2.4-2.3
			c1-0.6,2.1-0.8,3.4-0.8c1.3,0,2.4,0.3,3.4,0.8s1.8,1.3,2.4,2.3c0.6,1,0.9,2.1,0.9,3.3c0,1.2-0.3,2.3-0.9,3.3
			c-0.6,1-1.4,1.7-2.4,2.3s-2.1,0.8-3.4,0.8C101.6,62.5,100.5,62.2,99.5,61.6z M105.6,60.6c0.8-0.5,1.4-1.1,1.9-1.9
			c0.5-0.8,0.7-1.7,0.7-2.7c0-1-0.2-1.9-0.7-2.7c-0.5-0.8-1.1-1.4-1.9-1.9s-1.7-0.7-2.7-0.7c-1,0-1.9,0.2-2.7,0.7s-1.5,1.1-1.9,1.9
			c-0.5,0.8-0.7,1.7-0.7,2.7c0,1,0.2,1.9,0.7,2.7c0.5,0.8,1.1,1.4,1.9,1.9s1.7,0.7,2.7,0.7C103.9,61.3,104.8,61,105.6,60.6z"/>
		<path class="st0" d="M113.3,62c-0.9-0.3-1.5-0.7-2-1.2l0.5-1c0.5,0.5,1.1,0.8,1.8,1.1c0.8,0.3,1.5,0.4,2.3,0.4
			c1.1,0,2-0.2,2.5-0.6c0.6-0.4,0.8-1,0.8-1.6c0-0.5-0.2-0.9-0.5-1.2s-0.7-0.5-1.1-0.7c-0.4-0.2-1.1-0.3-1.9-0.5
			c-1-0.2-1.7-0.5-2.3-0.7c-0.6-0.2-1-0.6-1.5-1c-0.4-0.5-0.6-1.1-0.6-1.9c0-0.6,0.2-1.2,0.5-1.7s0.9-0.9,1.6-1.3
			c0.7-0.3,1.6-0.5,2.6-0.5c0.7,0,1.4,0.1,2.1,0.3c0.7,0.2,1.3,0.5,1.8,0.8l-0.5,1.1c-0.5-0.3-1.1-0.6-1.7-0.8s-1.2-0.3-1.8-0.3
			c-1.1,0-1.9,0.2-2.5,0.6c-0.6,0.4-0.8,1-0.8,1.7c0,0.5,0.2,0.9,0.5,1.2c0.3,0.3,0.7,0.5,1.2,0.7c0.5,0.2,1.1,0.3,1.9,0.5
			c0.9,0.2,1.7,0.5,2.2,0.7c0.6,0.2,1.1,0.6,1.5,1s0.6,1.1,0.6,1.8c0,0.6-0.2,1.2-0.5,1.7c-0.3,0.5-0.9,0.9-1.6,1.2
			c-0.7,0.3-1.6,0.5-2.6,0.5C115,62.5,114.1,62.3,113.3,62z"/>
	</g>
	<g>
	</g>
	<g>
		<path class="st1" d="M129.8,61.9c-0.8-0.4-1.5-1-1.9-1.8c-0.5-0.8-0.7-1.6-0.7-2.6s0.2-1.8,0.7-2.6c0.5-0.8,1.1-1.4,1.9-1.8
			c0.8-0.4,1.8-0.6,2.8-0.6c1,0,1.9,0.2,2.7,0.6c0.8,0.4,1.3,1,1.7,1.8l-2.2,1.2c-0.5-0.9-1.2-1.3-2.2-1.3c-0.7,0-1.3,0.2-1.8,0.7
			c-0.5,0.5-0.7,1.1-0.7,2c0,0.8,0.2,1.5,0.7,2c0.5,0.5,1.1,0.7,1.8,0.7c1,0,1.7-0.4,2.2-1.3l2.2,1.2c-0.3,0.8-0.9,1.4-1.7,1.8
			s-1.7,0.6-2.7,0.6C131.5,62.5,130.6,62.3,129.8,61.9z"/>
		<path class="st1" d="M140.3,61.9c-0.8-0.4-1.4-1-1.9-1.8s-0.7-1.6-0.7-2.6s0.2-1.8,0.7-2.6s1.1-1.4,1.9-1.8
			c0.8-0.4,1.7-0.6,2.8-0.6s1.9,0.2,2.7,0.6c0.8,0.4,1.4,1,1.9,1.8c0.5,0.8,0.7,1.6,0.7,2.6s-0.2,1.8-0.7,2.6
			c-0.5,0.8-1.1,1.4-1.9,1.8c-0.8,0.4-1.7,0.6-2.7,0.6S141.1,62.3,140.3,61.9z M144.8,59.5c0.5-0.5,0.7-1.1,0.7-2s-0.2-1.5-0.7-2
			c-0.5-0.5-1.1-0.7-1.8-0.7s-1.3,0.2-1.8,0.7c-0.5,0.5-0.7,1.1-0.7,2s0.2,1.5,0.7,2c0.5,0.5,1.1,0.7,1.8,0.7S144.4,59.9,144.8,59.5
			z"/>
		<path class="st1" d="M159.1,53.6c0.7,0.7,1.1,1.8,1.1,3.2v5.6h-2.8v-5.1c0-0.8-0.2-1.3-0.5-1.7s-0.8-0.6-1.5-0.6
			c-0.7,0-1.3,0.2-1.7,0.7c-0.4,0.4-0.6,1.1-0.6,2v4.8h-2.8v-9.7h2.7v1.1c0.4-0.4,0.8-0.7,1.4-0.9c0.6-0.2,1.2-0.3,1.8-0.3
			C157.4,52.5,158.3,52.9,159.1,53.6z"/>
	</g>
	<g>
		<path class="st0" d="M192.3,89c-0.4,0-0.8-0.2-1.1-0.4c-0.1-0.1-0.3-0.3-0.3-0.5c-0.1-0.2-0.1-0.4-0.1-0.6c0-0.1,0-0.2,0-0.3
			c0-0.1,0-0.2,0.1-0.3c0-0.1,0.1-0.2,0.1-0.3c0.1-0.1,0.1-0.2,0.2-0.2c0.3-0.4,0.9-0.5,1.3-0.4c0.1,0,0.2,0,0.3,0.1
			c0.1,0,0.2,0.1,0.3,0.1c0.1,0.1,0.2,0.1,0.2,0.2c0.1,0.1,0.1,0.1,0.2,0.2c0,0.1,0.1,0.2,0.1,0.3c0,0.1,0.1,0.2,0.1,0.3
			c0,0.1,0,0.2,0,0.3c0,0.2,0,0.4-0.1,0.6c-0.1,0.2-0.2,0.3-0.3,0.5C193.1,88.9,192.7,89,192.3,89z"/>
	</g>
	<g>
		<path class="st0" d="M187,81.4c-0.4-0.7-0.2-1.6,0.5-2l0,0c0.7-0.4,1.6-0.2,2.1,0.5l0,0c0.4,0.7,0.2,1.6-0.5,2.1l0,0
			c-0.2,0.1-0.5,0.2-0.8,0.2l0,0C187.7,82.2,187.2,81.9,187,81.4z M151.2,73.9c0-0.8,0.7-1.5,1.5-1.5l0,0c0.8,0,1.5,0.7,1.5,1.5l0,0
			c0,0.8-0.7,1.5-1.5,1.5l0,0C151.9,75.4,151.2,74.7,151.2,73.9z M143.3,73.9c0-0.8,0.7-1.5,1.5-1.5l0,0c0.8,0,1.5,0.7,1.5,1.5l0,0
			c0,0.8-0.7,1.5-1.5,1.5l0,0C143.9,75.4,143.3,74.7,143.3,73.9z M135.3,73.9c0-0.8,0.7-1.5,1.5-1.5l0,0c0.8,0,1.5,0.7,1.5,1.5l0,0
			c0,0.8-0.7,1.5-1.5,1.5l0,0C136,75.4,135.3,74.7,135.3,73.9z M127.3,73.9c0-0.8,0.7-1.5,1.5-1.5l0,0c0.8,0,1.5,0.7,1.5,1.5l0,0
			c0,0.8-0.7,1.5-1.5,1.5l0,0C128,75.4,127.3,74.7,127.3,73.9z M119.3,73.9c0-0.8,0.7-1.5,1.5-1.5l0,0c0.8,0,1.5,0.7,1.5,1.5l0,0
			c0,0.8-0.7,1.5-1.5,1.5l0,0C120,75.4,119.3,74.7,119.3,73.9z M111.4,73.9c0-0.8,0.7-1.5,1.5-1.5l0,0c0.8,0,1.5,0.7,1.5,1.5l0,0
			c0,0.8-0.7,1.5-1.5,1.5l0,0C112,75.4,111.4,74.7,111.4,73.9z M103.4,73.9c0-0.8,0.7-1.5,1.5-1.5l0,0c0.8,0,1.5,0.7,1.5,1.5l0,0
			c0,0.8-0.7,1.5-1.5,1.5l0,0C104.1,75.4,103.4,74.7,103.4,73.9z M95.4,73.9c0-0.8,0.7-1.5,1.5-1.5l0,0c0.8,0,1.5,0.7,1.5,1.5l0,0
			c0,0.8-0.7,1.5-1.5,1.5l0,0C96.1,75.4,95.4,74.7,95.4,73.9z M87.4,73.9c0-0.8,0.7-1.5,1.5-1.5l0,0c0.8,0,1.5,0.7,1.5,1.5l0,0
			c0,0.8-0.7,1.5-1.5,1.5l0,0C88.1,75.4,87.4,74.7,87.4,73.9z M79.5,73.9c0-0.8,0.7-1.5,1.5-1.5l0,0c0.8,0,1.5,0.7,1.5,1.5l0,0
			c0,0.8-0.7,1.5-1.5,1.5l0,0C80.1,75.4,79.5,74.7,79.5,73.9z M71.5,73.9c0-0.8,0.7-1.5,1.5-1.5l0,0c0.8,0,1.5,0.7,1.5,1.5l0,0
			c0,0.8-0.7,1.5-1.5,1.5l0,0C72.2,75.4,71.5,74.7,71.5,73.9z M63.5,73.9c0-0.8,0.7-1.5,1.5-1.5l0,0c0.8,0,1.5,0.7,1.5,1.5l0,0
			c0,0.8-0.7,1.5-1.5,1.5l0,0C64.2,75.4,63.5,74.7,63.5,73.9z M55.5,73.9c0-0.8,0.7-1.5,1.5-1.5l0,0c0.8,0,1.5,0.7,1.5,1.5l0,0
			c0,0.8-0.7,1.5-1.5,1.5l0,0C56.2,75.4,55.5,74.7,55.5,73.9z M47.6,73.9c0-0.8,0.7-1.5,1.5-1.5l0,0c0.8,0,1.5,0.7,1.5,1.5l0,0
			c0,0.8-0.7,1.5-1.5,1.5l0,0C48.2,75.4,47.6,74.7,47.6,73.9z M39.6,73.9c0-0.8,0.7-1.5,1.5-1.5l0,0c0.8,0,1.5,0.7,1.5,1.5l0,0
			c0,0.8-0.7,1.5-1.5,1.5l0,0C40.3,75.4,39.6,74.7,39.6,73.9z M31.6,73.9c0-0.8,0.7-1.5,1.5-1.5l0,0c0.8,0,1.5,0.7,1.5,1.5l0,0
			c0,0.8-0.7,1.5-1.5,1.5l0,0C32.3,75.4,31.6,74.7,31.6,73.9z M182.9,74.5c-0.4-0.7-0.2-1.6,0.5-2l0,0c0.7-0.4,1.6-0.2,2.1,0.5l0,0
			c0.4,0.7,0.2,1.6-0.5,2.1l0,0c-0.2,0.1-0.5,0.2-0.8,0.2l0,0C183.7,75.3,183.2,75,182.9,74.5z M25,75.3c-0.8-0.1-1.4-0.9-1.3-1.7
			l0,0c0.1-0.8,0.9-1.4,1.7-1.3l0,0l0,0l0,0c0.8,0.1,1.4,0.9,1.3,1.7l0,0c-0.1,0.8-0.7,1.3-1.5,1.3l0,0C25.1,75.3,25,75.3,25,75.3z
			 M159.2,73.9c-0.1-0.8,0.4-1.6,1.2-1.7l0,0c0.8-0.1,1.6,0.4,1.7,1.2l0,0c0.1,0.8-0.4,1.6-1.2,1.7v0c-0.1,0-0.2,0-0.3,0l0,0
			C160,75.2,159.4,74.7,159.2,73.9z M16.9,72L16.9,72c-0.7-0.5-0.8-1.4-0.3-2.1l0,0c0.5-0.7,1.4-0.8,2.1-0.3l0,0
			c0.7,0.5,0.8,1.4,0.3,2.1l0,0c-0.3,0.4-0.8,0.6-1.2,0.6l0,0C17.5,72.3,17.2,72.2,16.9,72z M178.9,67.7c-0.4-0.7-0.2-1.6,0.5-2.1
			l0,0c0.7-0.4,1.6-0.2,2,0.5l0,0c0.4,0.7,0.2,1.6-0.5,2.1l0,0c-0.2,0.1-0.5,0.2-0.8,0.2l0,0C179.7,68.4,179.2,68.1,178.9,67.7z
			 M11.6,65.2c-0.3-0.8,0-1.6,0.8-2l0,0c0.8-0.3,1.6,0,2,0.8l0,0c0.3,0.8,0,1.6-0.8,2l0,0c-0.2,0.1-0.4,0.1-0.6,0.1l0,0
			C12.4,66.1,11.8,65.8,11.6,65.2z M174.8,60.8c-0.4-0.7-0.2-1.6,0.5-2l0,0c0.7-0.4,1.6-0.2,2.1,0.5l0,0c0.4,0.7,0.2,1.6-0.5,2l0,0
			c-0.2,0.1-0.5,0.2-0.8,0.2l0,0C175.6,61.5,175.1,61.3,174.8,60.8z M10.2,56.8c0-0.8,0.7-1.5,1.5-1.5l0,0c0.8,0,1.5,0.7,1.5,1.5
			l0,0c0,0.8-0.7,1.5-1.5,1.5l0,0C10.9,58.3,10.2,57.6,10.2,56.8z M172,52.8c0-0.8,0.7-1.5,1.5-1.5l0,0c0.8,0,1.5,0.7,1.5,1.5l0,0
			c0,0.8-0.7,1.5-1.5,1.5l0,0C172.7,54.3,172,53.6,172,52.8z M10.2,48.8c0-0.8,0.7-1.5,1.5-1.5l0,0c0.8,0,1.5,0.7,1.5,1.5l0,0
			c0,0.8-0.7,1.5-1.5,1.5l0,0C10.9,50.3,10.2,49.7,10.2,48.8z M172,44.8c0-0.8,0.7-1.5,1.5-1.5l0,0c0.8,0,1.5,0.7,1.5,1.5l0,0
			c0,0.8-0.7,1.5-1.5,1.5l0,0C172.7,46.3,172,45.6,172,44.8z M10.2,40.9c0-0.8,0.7-1.5,1.5-1.5l0,0c0.8,0,1.5,0.7,1.5,1.5l0,0
			c0,0.8-0.7,1.5-1.5,1.5l0,0C10.9,42.4,10.2,41.7,10.2,40.9z M172,36.8c0-0.8,0.7-1.5,1.5-1.5l0,0c0.8,0,1.5,0.7,1.5,1.5l0,0
			c0,0.8-0.7,1.5-1.5,1.5l0,0C172.7,38.3,172,37.7,172,36.8z M10.2,32.9c0-0.8,0.7-1.5,1.5-1.5l0,0c0.8,0,1.5,0.7,1.5,1.5l0,0
			c0,0.8-0.7,1.5-1.5,1.5l0,0C10.9,34.4,10.2,33.7,10.2,32.9z M172,28.9c0-0.8,0.7-1.5,1.5-1.5l0,0c0.8,0,1.5,0.7,1.5,1.5l0,0
			c0,0.8-0.7,1.5-1.5,1.5l0,0C172.7,30.4,172,29.7,172,28.9z M10.2,24.9c0-0.8,0.7-1.5,1.5-1.5l0,0c0.8,0,1.5,0.7,1.5,1.5l0,0
			c0,0.8-0.7,1.5-1.5,1.5l0,0C10.9,26.4,10.2,25.8,10.2,24.9z M172,20.9c0-0.8,0.7-1.5,1.5-1.5l0,0c0.8,0,1.5,0.7,1.5,1.5l0,0
			c0,0.8-0.7,1.5-1.5,1.5l0,0C172.7,22.4,172,21.7,172,20.9z M10.2,16.9c0-0.8,0.7-1.5,1.5-1.5l0,0c0.8,0,1.5,0.7,1.5,1.5l0,0
			c0,0.8-0.7,1.5-1.5,1.5l0,0C10.9,18.4,10.2,17.8,10.2,16.9z M171.5,13.3c-0.2-0.8,0.3-1.6,1.1-1.8l0,0c0.8-0.2,1.6,0.3,1.8,1.1
			l0,0c0.2,0.8-0.3,1.6-1.1,1.8l0,0c-0.1,0-0.3,0-0.4,0l0,0C172.3,14.4,171.7,14,171.5,13.3z M12.9,10.6c-0.7-0.4-1-1.3-0.6-2l0,0
			c0.4-0.7,1.3-1,2.1-0.6l0,0c0.7,0.4,1,1.3,0.6,2l0,0l0,0l0,0c-0.3,0.5-0.8,0.8-1.3,0.8l0,0C13.4,10.8,13.2,10.8,12.9,10.6z
			 M168,7.2c-0.6-0.6-0.6-1.5,0-2.1l0,0c0.6-0.6,1.5-0.6,2.1,0l0,0c0.6,0.6,0.6,1.5,0,2.1l0,0c-0.3,0.3-0.7,0.4-1,0.4l0,0
			C168.7,7.6,168.3,7.5,168,7.2z M17.9,4.5c-0.4-0.7-0.2-1.6,0.5-2.1l0,0c0.7-0.4,1.6-0.2,2.1,0.5l0,0c0.4,0.7,0.2,1.6-0.5,2l0,0
			l0,0l0,0c-0.2,0.1-0.5,0.2-0.8,0.2l0,0C18.7,5.2,18.2,4.9,17.9,4.5z M161.9,3.5c-0.8-0.2-1.3-1.1-1-1.9l0,0c0.2-0.8,1.1-1.3,1.9-1
			l0,0c0.8,0.2,1.3,1.1,1,1.9l0,0c-0.2,0.7-0.8,1.1-1.4,1.1l0,0C162.2,3.6,162,3.6,161.9,3.5z M25.3,1.5c0-0.8,0.6-1.5,1.5-1.5l0,0
			c0.8,0,1.5,0.6,1.5,1.5l0,0c0,0.8-0.6,1.5-1.5,1.5l0,0c0,0,0,0,0,0l0,0C26,3,25.3,2.4,25.3,1.5z M152.9,1.5c0-0.8,0.7-1.5,1.5-1.5
			l0,0c0.8,0,1.5,0.7,1.5,1.5l0,0c0,0.8-0.7,1.5-1.5,1.5l0,0C153.5,3,152.9,2.3,152.9,1.5z M144.9,1.5c0-0.8,0.7-1.5,1.5-1.5l0,0
			c0.8,0,1.5,0.7,1.5,1.5l0,0c0,0.8-0.7,1.5-1.5,1.5l0,0C145.6,3,144.9,2.3,144.9,1.5z M136.9,1.5c0-0.8,0.7-1.5,1.5-1.5l0,0
			c0.8,0,1.5,0.7,1.5,1.5l0,0c0,0.8-0.7,1.5-1.5,1.5l0,0C137.6,3,136.9,2.3,136.9,1.5z M128.9,1.5c0-0.8,0.7-1.5,1.5-1.5l0,0
			c0.8,0,1.5,0.7,1.5,1.5l0,0c0,0.8-0.7,1.5-1.5,1.5l0,0C129.6,3,128.9,2.3,128.9,1.5z M121,1.5c0-0.8,0.7-1.5,1.5-1.5l0,0
			c0.8,0,1.5,0.7,1.5,1.5l0,0c0,0.8-0.7,1.5-1.5,1.5l0,0C121.6,3,121,2.3,121,1.5z M113,1.5c0-0.8,0.7-1.5,1.5-1.5l0,0
			c0.8,0,1.5,0.7,1.5,1.5l0,0c0,0.8-0.7,1.5-1.5,1.5l0,0C113.7,3,113,2.3,113,1.5z M105,1.5c0-0.8,0.7-1.5,1.5-1.5l0,0
			c0.8,0,1.5,0.7,1.5,1.5l0,0c0,0.8-0.7,1.5-1.5,1.5l0,0C105.7,3,105,2.3,105,1.5z M97,1.5C97,0.7,97.7,0,98.5,0l0,0
			c0.8,0,1.5,0.7,1.5,1.5l0,0c0,0.8-0.7,1.5-1.5,1.5l0,0C97.7,3,97,2.3,97,1.5z M89.1,1.5c0-0.8,0.7-1.5,1.5-1.5l0,0
			c0.8,0,1.5,0.7,1.5,1.5l0,0c0,0.8-0.7,1.5-1.5,1.5l0,0C89.7,3,89.1,2.3,89.1,1.5z M81.1,1.5c0-0.8,0.7-1.5,1.5-1.5l0,0
			c0.8,0,1.5,0.7,1.5,1.5l0,0c0,0.8-0.7,1.5-1.5,1.5l0,0C81.8,3,81.1,2.3,81.1,1.5z M73.1,1.5c0-0.8,0.7-1.5,1.5-1.5l0,0
			c0.8,0,1.5,0.7,1.5,1.5l0,0c0,0.8-0.7,1.5-1.5,1.5l0,0C73.8,3,73.1,2.3,73.1,1.5z M65.1,1.5c0-0.8,0.7-1.5,1.5-1.5l0,0
			c0.8,0,1.5,0.7,1.5,1.5l0,0c0,0.8-0.7,1.5-1.5,1.5l0,0C65.8,3,65.1,2.3,65.1,1.5z M57.2,1.5c0-0.8,0.7-1.5,1.5-1.5l0,0
			c0.8,0,1.5,0.7,1.5,1.5l0,0c0,0.8-0.7,1.5-1.5,1.5l0,0C57.8,3,57.2,2.3,57.2,1.5z M49.2,1.5c0-0.8,0.7-1.5,1.5-1.5l0,0
			c0.8,0,1.5,0.7,1.5,1.5l0,0c0,0.8-0.7,1.5-1.5,1.5l0,0C49.9,3,49.2,2.3,49.2,1.5z M41.2,1.5c0-0.8,0.7-1.5,1.5-1.5l0,0
			c0.8,0,1.5,0.7,1.5,1.5l0,0c0,0.8-0.7,1.5-1.5,1.5l0,0C41.9,3,41.2,2.3,41.2,1.5z M33.2,1.5c0-0.8,0.7-1.5,1.5-1.5l0,0
			c0.8,0,1.5,0.7,1.5,1.5l0,0c0,0.8-0.7,1.5-1.5,1.5l0,0C33.9,3,33.2,2.3,33.2,1.5z"/>
	</g>
	<g>
		<line class="st2" x1="167.9" y1="70.3" x2="167.9" y2="70.4"/>
	</g>
	<g>
		<path class="st0" d="M167.9,71.8c-0.1,0-0.2,0-0.3,0c-0.1,0-0.2,0-0.3-0.1c-0.1,0-0.2-0.1-0.3-0.1c-0.1-0.1-0.2-0.1-0.2-0.2
			c-0.3-0.3-0.4-0.7-0.4-1.1c0-0.1,0-0.2,0-0.3c0-0.1,0-0.2,0.1-0.3s0.1-0.2,0.1-0.3c0-0.1,0.1-0.2,0.2-0.2c0.1-0.1,0.1-0.1,0.2-0.2
			c0.1,0,0.2-0.1,0.3-0.1c0.1,0,0.2-0.1,0.3-0.1c0.5-0.1,1,0.1,1.4,0.4c0.3,0.3,0.4,0.7,0.4,1.1c0,0.4-0.2,0.8-0.4,1.1
			C168.7,71.7,168.3,71.8,167.9,71.8z"/>
	</g>
	<g>
		<path class="st0" d="M185.3,84.5c-0.7-0.5-0.8-1.4-0.4-2.1l0,0c0.5-0.7,1.4-0.8,2.1-0.4l0,0c0.7,0.5,0.8,1.4,0.4,2.1l0,0
			c-0.3,0.4-0.8,0.6-1.2,0.6l0,0C185.9,84.8,185.6,84.7,185.3,84.5z M179.2,80.2c-0.7-0.5-0.8-1.4-0.4-2.1l0,0
			c0.5-0.7,1.4-0.8,2.1-0.4l0,0c0.7,0.5,0.8,1.4,0.4,2.1l0,0c-0.3,0.4-0.8,0.6-1.2,0.6l0,0C179.8,80.4,179.5,80.4,179.2,80.2z
			 M173.2,75.9c-0.7-0.5-0.8-1.4-0.4-2.1l0,0c0.5-0.7,1.4-0.8,2.1-0.4l0,0c0.7,0.5,0.8,1.4,0.4,2.1l0,0c-0.3,0.4-0.8,0.6-1.2,0.6
			l0,0C173.7,76.1,173.4,76.1,173.2,75.9z"/>
	</g>
	<g>
		<path class="st3" d="M69.6,153.8c0,0-3.1-4.1-3.1-4.1c0,0-0.1-0.1-0.3-0.2l-12.7-3.6c-0.1,0-0.2,0-0.3,0l-12.7,3.6
			c0,0-0.2,0-0.3,0.2c0,0.1-3,4.1-3,4.1c-0.1,0.1-0.1,0.3-0.1,0.5c0,0.2,0.2,0.3,0.3,0.3l2.7,0.9v7.3c0,0.2,0.1,0.4,0.3,0.5
			l12.7,5.3c0,0,0.1,0,0.2,0c0.1,0,0.2,0,0.2,0l12.7-5.3c0.2-0.1,0.3-0.3,0.3-0.5v-7.3l2.7-0.9c0.2-0.1,0.3-0.2,0.3-0.3
			C69.7,154.1,69.7,153.9,69.6,153.8 M38.5,153.8l2.4-3.2l1,0.3l5.5,1.5l5.2,1.4l-3,3.7L38.5,153.8z M52.9,167.3l-11.7-4.8v-6.6
			l8.3,2.8c0.1,0,0.1,0,0.2,0c0.2,0,0.3-0.1,0.4-0.2l2.8-3.5V167.3z M53.4,153l-10.8-3l10.8-3l10.8,3L53.4,153z M65.6,162.5
			l-11.7,4.8V155l2.8,3.5c0.1,0.1,0.3,0.2,0.4,0.2c0.1,0,0.1,0,0.2,0l8.3-2.8V162.5z M57.4,157.6l-3-3.7l11.6-3.2l2.4,3.2
			L57.4,157.6z"/>
	</g>
	<g>
		<path class="st3" d="M152.8,156.4l-2.4-6.2c-0.1-0.2-0.2-0.3-0.4-0.3l-4.5-1.2l-1.7-3.1c-0.1-0.2-0.3-0.3-0.5-0.3h-11.5
			c-0.2,0-0.4,0.1-0.5,0.3l-1.7,3.1l-4.5,1.2c-0.2,0-0.3,0.2-0.4,0.3l-2.4,6.2c-0.1,0.2,0,0.4,0.1,0.6c0.1,0.1,0.3,0.2,0.4,0.2
			c0,0,0.1,0,0.1,0l3.9-1l-1.2,3.9c-0.1,0.2,0,0.3,0.1,0.5c0.1,0.1,0.3,0.2,0.4,0.2h1.5l0.9,7.7c0,0.3,0.3,0.5,0.5,0.5h16.8
			c0.3,0,0.5-0.2,0.5-0.5l0.9-7.7h1.5h0c0.3,0,0.5-0.2,0.5-0.5c0-0.1,0-0.1,0-0.2l-1.2-3.9l3.9,1c0,0,0.1,0,0.1,0
			c0.2,0,0.3-0.1,0.4-0.2C152.9,156.9,152.9,156.6,152.8,156.4 M130.5,149.7h14.4l1.9,5.1h-18.1L130.5,149.7z M132.2,146.4h10.9
			l1.2,2.2H131L132.2,146.4z M125.8,150.9l3.5-1l-1.8,4.9l-3.5,0.9L125.8,150.9z M145.6,167.9h-15.8l-0.8-7.1h17.4L145.6,167.9z
			 M127.1,159.7l1.1-3.8h18.9l1.1,3.8H127.1z M147.9,154.9l-1.8-4.9l3.5,1l1.9,4.9L147.9,154.9z"/>
	</g>
	<g>
		<path class="st3" d="M188.9,153.8l-2.3-9.2c-0.1-0.2-0.3-0.4-0.5-0.4h-5.8h-3.6h-5.8c-0.2,0-0.4,0.2-0.5,0.4l-2.3,9.2
			c0,0,0,0.1,0,0.1v15.5c0,0.3,0.2,0.5,0.5,0.5h19.8c0.3,0,0.5-0.2,0.5-0.5v-15.5C188.9,153.9,188.9,153.8,188.9,153.8 M187.7,153.4
			h-6.1l-0.7-8.1h4.8L187.7,153.4z M179.8,145.3c0,0,0.8,8.7,0.8,8.7v2.7h-4.3V154c0,0,0.8-8.7,0.8-8.7H179.8z M171.3,145.3h4.8
			l-0.7,8.1h-6.1L171.3,145.3z M169.1,168.9v-14.5h6.3v2.8c0,0.3,0.2,0.5,0.5,0.5h5.3c0.3,0,0.5-0.2,0.5-0.5v-2.8h6.3v14.5H169.1z"
			/>
	</g>
	<g>
		<path class="st3" d="M179.3,158.9c-0.2-0.3-0.5-0.4-0.8-0.4c-0.3,0-0.6,0.2-0.8,0.4l-2.2,3.1c-0.2,0.3-0.3,0.7-0.1,1
			c0.2,0.3,0.5,0.5,0.9,0.5h0.2v3.2c0,0.5,0.4,1,1,1h2c0.5,0,1-0.4,1-1v-3.2h0.2c0.4,0,0.7-0.2,0.9-0.5c0.2-0.3,0.1-0.7-0.1-1
			L179.3,158.9z M179.5,162.6v4.2h-2v-4.2h-1.2l2.2-3.1l2.2,3.1H179.5z"/>
	</g>
	<g>
		<path class="st3" d="M25.9,149.5l-12.6-5.6c-0.1-0.1-0.3-0.1-0.4,0l-12.6,5.6C0.1,149.6,0,149.8,0,150v14.6c0,0.2,0.1,0.4,0.3,0.5
			l12.6,5.8c0.1,0,0.1,0,0.2,0c0.1,0,0.1,0,0.2,0c0,0,12.6-5.8,12.6-5.8c0.2-0.1,0.3-0.3,0.3-0.5V150
			C26.2,149.8,26.2,149.6,25.9,149.5 M7.6,152.9c-0.2,0.1-0.3,0.3-0.3,0.5v4.9l-2.5-1.2v-4.9l11.9-5.7l2.1,0.9L7.6,152.9z
			 M13.1,144.9l2.4,1.1l-10.9,5.3L1.8,150L13.1,144.9z M12.6,169.6L1,164.3v-13.5l2.9,1.3v5.4c0,0.2,0.1,0.4,0.3,0.5l3.5,1.6
			c0.1,0,0.1,0,0.2,0c0.1,0,0.2,0,0.3-0.1c0.1-0.1,0.2-0.3,0.2-0.4v-5l4.3,1.9V169.6z M13.1,155.2l-4-1.8l11-5.3l4.3,1.9L13.1,155.2
			z M25.2,164.3l-11.6,5.3V156l11.6-5.3V164.3z"/>
	</g>
	<g>
		<path class="st3" d="M110.2,149.6c0-0.2-0.1-0.3-0.3-0.4L98.2,144c-0.2-0.1-0.4,0-0.5,0.1l-3.4,3l-3.4-3c-0.1-0.1-0.3-0.2-0.5-0.1
			l-11.7,5.3c-0.1,0.1-0.2,0.2-0.3,0.4c0,0.2,0,0.3,0.1,0.4l3.7,3.6l-2.1,3.7c-0.1,0.2-0.1,0.5,0.2,0.6l2,1.2v4.7
			c0,0.2,0.1,0.3,0.2,0.4l11.5,6.7c0.1,0,0.2,0.1,0.2,0.1c0.1,0,0.2,0,0.2-0.1v0l11.5-6.7c0.1-0.1,0.2-0.2,0.2-0.4v-4.7l2-1.2
			c0.2-0.1,0.3-0.4,0.2-0.6l-2.1-3.7l3.7-3.6C110.2,149.9,110.2,149.7,110.2,149.6 M98.5,156.9l-3.8-2.2v-6.3l10,5L98.5,156.9z
			 M83.8,153.5l10-5v6.3l-3.8,2.2L83.8,153.5z M79.7,149.8l10.8-4.9l3,2.7l-10.6,5.3L79.7,149.8z M81.2,157.3l1.8-3.2l10.6,5.8
			l-2.4,3.1L81.2,157.3z M93.8,169.6l-10.5-6.1v-3.9l7.8,4.5c0.1,0,0.2,0.1,0.2,0.1c0.1,0,0.3-0.1,0.4-0.2l2.1-2.7V169.6z
			 M94.3,159.3l-3.3-1.8l3.3-1.9l3.3,1.9L94.3,159.3z M105.3,163.5l-10.5,6.1v-8.4l2.1,2.7c0.1,0.1,0.2,0.2,0.4,0.2
			c0.1,0,0.2,0,0.2-0.1l7.8-4.5V163.5z M107.4,157.3l-10,5.7L95,160l10.6-5.8L107.4,157.3z M105.7,152.9l-10.6-5.3l3-2.7l10.8,4.9
			L105.7,152.9z"/>
	</g>
	<g>
		<path class="st0" d="M119.3,92l0-0.1h-11.5l-3.9,21.3h-1.7l5.3-28.9H100v0H76.2v0.2c0,4.5,3.9,6,5.7,6h8.3v0
			c1.5,0,2.7,1.2,2.7,2.7c0,1.5-1.2,2.7-2.7,2.7h0H90H70.7V96c0,4.5,3.9,6,5.7,6H90h0.3h4.8c1.5,0,2.7,1.2,2.7,2.7
			c0,1.5-1.2,2.8-2.7,2.8h-1h-5.9v0H72.6h-0.7h-6.6v0.2c0,4.5,3.9,6,5.7,6h0.8h0.7h1.3l-0.6,3.3H78c0.6,1.7,1.8,3,3.5,3.6
			c0.6,0.2,1.3,0.3,2,0.3c2.4,0,4.7-1.5,5.7-4h7.6v0h6.5h1.8h1.3c0.6,1.7,1.8,3,3.5,3.6c0.6,0.2,1.3,0.4,2,0.4
			c0.9,0,1.8-0.2,2.6-0.6c1.4-0.7,2.5-1.9,3.1-3.4h3.8l2.3-12.6L119.3,92z M85.7,116.1c-0.4,1.2-1.8,1.9-2.9,1.4
			c-1.2-0.4-1.8-1.8-1.3-3c0.4-1.2,1.8-1.9,2.9-1.4C85.5,113.5,86.1,114.8,85.7,116.1 M113.9,116.1c-0.4,1.2-1.8,1.9-2.9,1.4
			c-1.2-0.4-1.8-1.8-1.3-3c0.4-1.2,1.8-1.9,2.9-1.4C113.8,113.5,114.4,114.8,113.9,116.1 M108.5,104.4l1.8-9.8h6.5l3.4,9.8H108.5z"
			/>
	</g>
	<g>
		<path class="st0" d="M73.1,132.8l0.3-1.4H72l-0.7,1.4h-1.7l3.5-6.3H76l-1.2,6.3H73.1z M73.7,128l-1.1,2.2h1.2l0.5-2.2H73.7z"/>
	</g>
	<g>
		<polygon class="st0" points="81.8,132.8 77.8,132.8 80.2,126.5 81.8,126.5 79.9,131.4 82.4,131.4 		"/>
	</g>
	<g>
		<path class="st0" d="M85.7,132.8l0.3-1.4h-1.5l-0.7,1.4h-1.7l3.5-6.3h2.9l-1.2,6.3H85.7z M86.3,128l-1.1,2.2h1.2l0.5-2.2H86.3z"/>
	</g>
	<g>
		<path class="st0" d="M92.6,132.9c-0.8,0-1.4-0.2-1.7-0.5c-0.2-0.3-0.2-0.6-0.1-1.1c0-0.2,0.1-0.4,0.2-0.6l0.8-2
			c0.6-1.5,1.7-2.2,3.3-2.2c0.7,0,1.2,0.1,1.5,0.4c0.3,0.3,0.4,0.7,0.3,1.2c0,0.2-0.1,0.5-0.2,0.7c-0.1,0.2-0.2,0.4-0.3,0.5
			l-0.1,0.2h-1.6c0.2-0.2,0.4-0.5,0.5-1c0-0.2,0-0.4-0.1-0.5c-0.1-0.1-0.2-0.2-0.5-0.2c-0.6,0-1,0.3-1.3,1l-0.7,1.8
			c-0.1,0.2-0.1,0.3-0.1,0.5c-0.1,0.4,0.1,0.6,0.6,0.6c0.6,0,1-0.3,1.2-0.9h1.6l-0.1,0.3C95.3,132.2,94.2,132.9,92.6,132.9"/>
	</g>
	<g>
		<path class="st0" d="M99.2,132.8l0.3-1.4h-1.5l-0.7,1.4h-1.7l3.5-6.3h2.9l-1.2,6.3H99.2z M99.8,128l-1.1,2.2h1.2l0.5-2.2H99.8z"/>
	</g>
	<g>
		<path class="st0" d="M106.7,126.5c0.7,0,1.1,0.1,1.4,0.4c0.2,0.2,0.2,0.5,0.2,0.8c0,0.1-0.1,0.2-0.1,0.4l-0.3,0.7
			c-0.1,0.4-0.3,0.7-0.5,0.9c-0.2,0.2-0.4,0.4-0.7,0.5l0.3,2.6h-1.8l-0.3-2.4h-0.6l-0.8,2.4h-1.7l2.4-6.3H106.7z M105.9,127.8h-0.7
			l-0.5,1.5h0.6c0.3,0,0.6-0.1,0.7-0.2c0.2-0.2,0.3-0.3,0.3-0.6C106.4,128.1,106.3,127.8,105.9,127.8"/>
	</g>
	<g>
		<path class="st0" d="M109.8,132.9c-0.8,0-1.4-0.2-1.6-0.6c-0.2-0.3-0.2-0.6-0.1-1.1c0-0.2,0.1-0.5,0.2-0.7l0.7-1.8
			c0.6-1.6,1.7-2.4,3.4-2.4c0.7,0,1.2,0.1,1.5,0.4c0.3,0.3,0.4,0.7,0.3,1.2c0,0.2-0.1,0.4-0.2,0.6c-0.1,0.2-0.2,0.4-0.3,0.5
			l-0.1,0.2h-1.6c0.2-0.2,0.3-0.5,0.4-0.7c0.1-0.5-0.1-0.8-0.5-0.8c-0.6,0-1,0.3-1.3,1l-0.6,1.7c-0.1,0.2-0.1,0.3-0.1,0.5
			c-0.1,0.4,0.1,0.6,0.6,0.6s0.8-0.2,1.1-0.7h-0.7l0.4-1h2.4l-0.3,0.8l-0.1,0.3C112.5,132.2,111.4,132.9,109.8,132.9"/>
	</g>
	<g>
		<path class="st0" d="M116.4,132.8l0.3-1.4h-1.5l-0.7,1.4h-1.7l3.5-6.3h2.9l-1.2,6.3H116.4z M117,128l-1.1,2.2h1.2l0.5-2.2H117z"/>
	</g>
</g>
</svg>
